<?xml version="1.0" encoding="UTF-8"?>
<svg width="160" height="48" viewBox="0 0 160 48" fill="none" xmlns="http://www.w3.org/2000/svg">
  <style>
    @import url('https://fonts.googleapis.com/css2?family=Wallpoet&amp;display=swap');
    .moai-text { font-family: 'Wallpoet', monospace; }
  </style>

  <!-- Background Hexagon -->
  <path d="M24 4L44 14V34L24 44L4 34V14L24 4Z" fill="#1A1B26"/>
  <path d="M24 4L44 14V34L24 44L4 34V14L24 4Z" stroke="#5CE1E6" stroke-width="1"/>

  <!-- Inner Glow -->
  <path d="M24 8L38 16V32L24 40L10 32V16L24 8Z" fill="#5CE1E6" fill-opacity="0.1"/>

  <!-- Moai Face Geometric -->
  <path d="M24 12L32 16V28L24 32L16 28V16L24 12Z" stroke="#5CE1E6" stroke-width="1.5"/>
  <path d="M20 20H28M20 24H28" stroke="#5CE1E6" stroke-width="1.5" stroke-linecap="square"/>
  <rect x="22" y="16" width="4" height="6" fill="#5CE1E6"/>

  <!-- Pixel Decorations -->
  <g>
    <rect x="23" y="6" width="2" height="2" fill="#5CE1E6"/>
    <rect x="40" y="22" width="2" height="2" fill="#5CE1E6"/>
    <rect x="6" y="22" width="2" height="2" fill="#5CE1E6"/>
    <rect x="23" y="40" width="2" height="2" fill="#5CE1E6"/>
  </g>

  <!-- Corner Decorations -->
  <g>
    <circle cx="8" cy="14" r="1" fill="#5CE1E6"/>
    <circle cx="40" cy="14" r="1" fill="#5CE1E6"/>
    <circle cx="8" cy="34" r="1" fill="#5CE1E6"/>
    <circle cx="40" cy="34" r="1" fill="#5CE1E6"/>
  </g>

  <!-- Grid Pattern -->
  <g opacity="0.2">
    <path d="M12 24h24M24 12v24" stroke="#5CE1E6" stroke-width="0.5"/>
  </g>

  <!-- Text -->
  <text x="64" y="32" class="moai-text" fill="#FFFFFF" font-size="32" letter-spacing="0.1em">moai</text>
</svg>
